<svg width="93" height="94" viewBox="0 0 93 94" fill="none" xmlns="http://www.w3.org/2000/svg">
<path d="M8.45441 2.12732H62.5568C65.0475 2.12732 67.0659 4.14611 67.0659 6.63641V67.6889C67.0659 70.1791 65.0475 72.198 62.5568 72.198H8.45441C5.9641 72.198 3.94531 70.1791 3.94531 67.6889V6.63641C3.94531 4.14611 5.9641 2.12732 8.45441 2.12732Z" stroke="url(#paint0_linear_119_3)" stroke-width="4"/>
<path d="M6.4114 5.1106L43.2658 22.2595C44.8558 22.9993 45.8726 24.594 45.8726 26.3477V86.7674C45.8726 90.0303 42.5144 92.2127 39.5327 90.8882L2.67828 74.514C1.04964 73.7903 0 72.1755 0 70.3932V9.19879C0 5.90202 3.42236 3.71977 6.4114 5.1106Z" fill="black"/>
<defs>
<linearGradient id="paint0_linear_119_3" x1="67.0659" y1="20.7774" x2="22.5453" y2="40.7364" gradientUnits="userSpaceOnUse">
<stop/>
<stop offset="0.760417" stop-opacity="0"/>
</linearGradient>
</defs>
</svg>
