<svg width="100" height="32" viewBox="0 0 184 51" fill="none" xmlns="http://www.w3.org/2000/svg">
<path d="M3.408 50C2.55467 50 1.82933 49.7227 1.232 49.168C0.677334 48.5707 0.4 47.8453 0.4 46.992V3.024C0.4 2.128 0.677334 1.40266 1.232 0.848C1.82933 0.293332 2.55467 0.0159988 3.408 0.0159988H32.784C33.6373 0.0159988 34.3413 0.293332 34.896 0.848C35.4507 1.36 35.728 2.04266 35.728 2.896C35.728 3.664 35.4507 4.32533 34.896 4.88C34.3413 5.392 33.6373 5.648 32.784 5.648H6.416V22.032H25.424C26.32 22.032 27.024 22.3093 27.536 22.864C28.0907 23.376 28.368 24.0373 28.368 24.848C28.368 25.6587 28.0907 26.3413 27.536 26.896C27.024 27.408 26.32 27.664 25.424 27.664H6.416V44.368H32.784C33.6373 44.368 34.3413 44.6453 34.896 45.2C35.4507 45.712 35.728 46.352 35.728 47.12C35.728 47.9733 35.4507 48.6773 34.896 49.232C34.3413 49.744 33.6373 50 32.784 50H3.408ZM57.505 50C55.329 50 53.3663 49.4667 51.617 48.4C49.8677 47.2907 48.5023 45.8187 47.521 43.984C46.5397 42.1067 46.049 39.9733 46.049 37.584V6.8C46.049 5.94666 46.305 5.24266 46.817 4.688C47.3717 4.13333 48.0757 3.856 48.929 3.856C49.7823 3.856 50.4863 4.13333 51.041 4.688C51.5957 5.24266 51.873 5.94666 51.873 6.8V37.584C51.873 39.504 52.4063 41.0827 53.473 42.32C54.5397 43.5573 55.8837 44.176 57.505 44.176H59.489C60.2143 44.176 60.8117 44.4533 61.281 45.008C61.793 45.5627 62.049 46.2667 62.049 47.12C62.049 47.9733 61.729 48.6773 61.089 49.232C60.4917 49.744 59.7023 50 58.721 50H57.505ZM42.593 21.328C41.825 21.328 41.185 21.0933 40.673 20.624C40.161 20.1547 39.905 19.5573 39.905 18.832C39.905 18.064 40.161 17.4453 40.673 16.976C41.185 16.5067 41.825 16.272 42.593 16.272H58.017C58.785 16.272 59.425 16.5067 59.937 16.976C60.449 17.4453 60.705 18.064 60.705 18.832C60.705 19.5573 60.449 20.1547 59.937 20.624C59.425 21.0933 58.785 21.328 58.017 21.328H42.593ZM73.0165 36.688C72.1632 36.688 71.4592 36.4107 70.9045 35.856C70.3498 35.2587 70.0725 34.5333 70.0725 33.68V2.96C70.0725 2.064 70.3498 1.36 70.9045 0.848C71.4592 0.293332 72.1632 0.0159988 73.0165 0.0159988C73.9125 0.0159988 74.6165 0.293332 75.1285 0.848C75.6832 1.36 75.9605 2.064 75.9605 2.96V33.68C75.9605 34.5333 75.6832 35.2587 75.1285 35.856C74.6165 36.4107 73.9125 36.688 73.0165 36.688ZM99.8325 50.064C98.9792 50.064 98.2538 49.7867 97.6565 49.232C97.1018 48.6347 96.8245 47.9307 96.8245 47.12V30.992C96.8245 28.4747 96.3552 26.4267 95.4165 24.848C94.4778 23.2267 93.2192 22.032 91.6405 21.264C90.0618 20.4533 88.2485 20.048 86.2005 20.048C84.2805 20.048 82.5525 20.432 81.0165 21.2C79.4805 21.968 78.2432 22.992 77.3045 24.272C76.4085 25.552 75.9605 27.024 75.9605 28.688H72.1205C72.1632 26 72.8458 23.6107 74.1685 21.52C75.4912 19.3867 77.2832 17.7227 79.5445 16.528C81.8058 15.2907 84.3445 14.672 87.1605 14.672C90.1472 14.672 92.8138 15.312 95.1605 16.592C97.5072 17.8293 99.3632 19.664 100.729 22.096C102.094 24.528 102.777 27.4933 102.777 30.992V47.12C102.777 47.9307 102.478 48.6347 101.881 49.232C101.326 49.7867 100.643 50.064 99.8325 50.064ZM73.0165 50.064C72.1632 50.064 71.4592 49.7867 70.9045 49.232C70.3498 48.6773 70.0725 47.9733 70.0725 47.12V17.936C70.0725 17.04 70.3498 16.336 70.9045 15.824C71.4592 15.2693 72.1632 14.992 73.0165 14.992C73.9125 14.992 74.6165 15.2693 75.1285 15.824C75.6832 16.336 75.9605 17.04 75.9605 17.936V47.12C75.9605 47.9733 75.6832 48.6773 75.1285 49.232C74.6165 49.7867 73.9125 50.064 73.0165 50.064ZM129.507 50.256C126.094 50.256 123.043 49.5093 120.355 48.016C117.71 46.48 115.619 44.3893 114.083 41.744C112.59 39.056 111.843 35.984 111.843 32.528C111.843 29.0293 112.59 25.9573 114.083 23.312C115.619 20.624 117.71 18.5333 120.355 17.04C123.043 15.504 126.094 14.736 129.507 14.736C132.92 14.736 135.95 15.504 138.595 17.04C141.283 18.5333 143.374 20.624 144.867 23.312C146.403 25.9573 147.192 29.0293 147.235 32.528C147.235 35.984 146.467 39.056 144.931 41.744C143.395 44.3893 141.304 46.48 138.659 48.016C136.014 49.5093 132.963 50.256 129.507 50.256ZM129.507 45.008C131.854 45.008 133.923 44.4747 135.715 43.408C137.507 42.3413 138.915 40.8693 139.939 38.992C140.963 37.1147 141.475 34.96 141.475 32.528C141.475 30.096 140.963 27.9413 139.939 26.064C138.915 24.144 137.507 22.6507 135.715 21.584C133.923 20.5173 131.854 19.984 129.507 19.984C127.203 19.984 125.134 20.5173 123.299 21.584C121.507 22.6507 120.099 24.144 119.075 26.064C118.051 27.9413 117.539 30.096 117.539 32.528C117.539 34.96 118.051 37.1147 119.075 38.992C120.099 40.8693 121.507 42.3413 123.299 43.408C125.134 44.4747 127.203 45.008 129.507 45.008ZM169.429 50.256C166.613 50.256 163.946 49.8293 161.429 48.976C158.912 48.08 156.928 46.864 155.477 45.328C154.922 44.688 154.688 43.984 154.773 43.216C154.858 42.448 155.242 41.7867 155.925 41.232C156.65 40.6773 157.397 40.4427 158.165 40.528C158.933 40.6133 159.573 40.9547 160.085 41.552C160.938 42.4907 162.176 43.3013 163.797 43.984C165.461 44.6667 167.274 45.008 169.237 45.008C172.01 45.008 174.058 44.56 175.381 43.664C176.746 42.7253 177.45 41.5733 177.493 40.208C177.493 38.8 176.832 37.6267 175.509 36.688C174.186 35.7067 171.861 34.9387 168.533 34.384C164.224 33.5733 161.088 32.3147 159.125 30.608C157.162 28.9013 156.181 26.832 156.181 24.4C156.181 22.224 156.778 20.432 157.973 19.024C159.21 17.5733 160.81 16.5067 162.773 15.824C164.778 15.0987 166.89 14.736 169.109 14.736C171.925 14.736 174.4 15.2053 176.533 16.144C178.666 17.04 180.373 18.2987 181.653 19.92C182.208 20.56 182.442 21.2213 182.357 21.904C182.314 22.5867 181.973 23.1627 181.333 23.632C180.693 24.016 179.946 24.144 179.093 24.016C178.282 23.888 177.6 23.5253 177.045 22.928C175.978 21.8187 174.784 21.0507 173.461 20.624C172.181 20.1547 170.688 19.92 168.981 19.92C166.933 19.92 165.226 20.304 163.861 21.072C162.538 21.84 161.877 22.8853 161.877 24.208C161.877 25.0613 162.09 25.808 162.517 26.448C162.986 27.088 163.84 27.6853 165.077 28.24C166.314 28.752 168.085 29.2213 170.389 29.648C173.589 30.2453 176.106 31.0347 177.941 32.016C179.818 32.9973 181.162 34.1493 181.973 35.472C182.784 36.7947 183.189 38.288 183.189 39.952C183.189 41.9147 182.634 43.6853 181.525 45.264C180.458 46.8 178.901 48.016 176.853 48.912C174.805 49.808 172.33 50.256 169.429 50.256Z" fill="black"/>
</svg>
